<svg xmlns="http://www.w3.org/2000/svg" xmlns:xlink="http://www.w3.org/1999/xlink" width="40" zoomAndPan="magnify" viewBox="0 0 30 30.000001" height="40" preserveAspectRatio="xMidYMid meet" version="1.0"><defs><clipPath id="id1"><path d="M 0.484375 0 L 29.515625 0 L 29.515625 29.03125 L 0.484375 29.03125 Z M 0.484375 0 " clip-rule="nonzero"/></clipPath><clipPath id="id2"><path d="M 6.691406 8.699219 L 23.382812 8.699219 L 23.382812 20.3125 L 6.691406 20.3125 Z M 6.691406 8.699219 " clip-rule="nonzero"/></clipPath></defs><g clip-path="url(#id1)"><path fill="#ffffff" d="M 0.484375 0 L 29.515625 0 L 29.515625 36.289062 L 0.484375 36.289062 Z M 0.484375 0 " fill-opacity="1" fill-rule="nonzero"/><path fill="#ff1616" d="M 0.484375 0 L 29.515625 0 L 29.515625 29.03125 L 0.484375 29.03125 Z M 0.484375 0 " fill-opacity="1" fill-rule="nonzero"/><path fill="#ffffff" d="M 0.484375 0 L 29.515625 0 L 29.515625 29.03125 L 0.484375 29.03125 Z M 0.484375 0 " fill-opacity="1" fill-rule="nonzero"/><path fill="#ff1616" d="M 0.484375 0 L 29.515625 0 L 29.515625 29.03125 L 0.484375 29.03125 Z M 0.484375 0 " fill-opacity="1" fill-rule="nonzero"/></g><g clip-path="url(#id2)"><path fill="#ffffff" d="M 7.601562 8.726562 C 7.371094 8.722656 7.171875 8.800781 7.007812 8.960938 C 6.84375 9.125 6.761719 9.320312 6.761719 9.550781 C 6.761719 9.78125 6.84375 9.976562 7.007812 10.140625 C 7.171875 10.300781 7.371094 10.378906 7.601562 10.375 L 22.550781 10.375 C 22.785156 10.378906 22.984375 10.300781 23.148438 10.140625 C 23.3125 9.976562 23.394531 9.78125 23.394531 9.550781 C 23.394531 9.320312 23.3125 9.125 23.148438 8.960938 C 22.984375 8.800781 22.785156 8.722656 22.550781 8.726562 Z M 7.601562 13.679688 C 7.371094 13.675781 7.171875 13.753906 7.007812 13.917969 C 6.84375 14.078125 6.761719 14.273438 6.761719 14.503906 C 6.761719 14.734375 6.84375 14.933594 7.007812 15.09375 C 7.171875 15.253906 7.371094 15.335938 7.601562 15.332031 L 22.550781 15.332031 C 22.785156 15.335938 22.984375 15.253906 23.148438 15.09375 C 23.3125 14.933594 23.394531 14.734375 23.394531 14.503906 C 23.394531 14.273438 23.3125 14.078125 23.148438 13.917969 C 22.984375 13.753906 22.785156 13.675781 22.550781 13.679688 Z M 7.601562 18.632812 C 7.371094 18.632812 7.171875 18.710938 7.007812 18.871094 C 6.84375 19.035156 6.761719 19.230469 6.761719 19.460938 C 6.761719 19.691406 6.84375 19.886719 7.007812 20.046875 C 7.171875 20.210938 7.371094 20.289062 7.601562 20.285156 L 22.550781 20.285156 C 22.785156 20.289062 22.984375 20.210938 23.148438 20.046875 C 23.3125 19.886719 23.394531 19.691406 23.394531 19.460938 C 23.394531 19.230469 23.3125 19.035156 23.148438 18.871094 C 22.984375 18.710938 22.785156 18.632812 22.550781 18.632812 Z M 7.601562 18.632812 " fill-opacity="1" fill-rule="nonzero"/></g></svg>